<!DOCTYPE svg PUBLIC "-//W3C//DTD SVG 1.1//EN" "http://www.w3.org/Graphics/SVG/1.1/DTD/svg11.dtd">
<!-- Uploaded to: SVG Repo, www.svgrepo.com, Transformed by: SVG Repo Mixer Tools -->
<svg fill="#000000" width="800px" height="800px" viewBox="0 0 24 24" id="folder" data-name="Flat Line" xmlns="http://www.w3.org/2000/svg" class="icon flat-line">
<g id="SVGRepo_bgCarrier" stroke-width="0"/>
<g id="SVGRepo_tracerCarrier" stroke-linecap="round" stroke-linejoin="round"/>
<g id="SVGRepo_iconCarrier">
<path id="secondary" d="M21,8V19a1,1,0,0,1-1,1H4a1,1,0,0,1-1-1V5A1,1,0,0,1,4,4H9.59a1,1,0,0,1,.7.29l2.42,2.42a1,1,0,0,0,.7.29H20A1,1,0,0,1,21,8Z" style="fill: #2ca9bc; stroke-width: 2;"/>
<path id="primary" d="M21,8V19a1,1,0,0,1-1,1H4a1,1,0,0,1-1-1V5A1,1,0,0,1,4,4H9.59a1,1,0,0,1,.7.29l2.42,2.42a1,1,0,0,0,.7.29H20A1,1,0,0,1,21,8Z" style="fill: none; stroke: #ffffff; stroke-linecap: round; stroke-linejoin: round; stroke-width: 2;"/>
</g>
</svg>