<?xml version="1.0" encoding="utf-8"?><!-- Uploaded to: SVG Repo, www.svgrepo.com, Generator: SVG Repo Mixer Tools -->
<svg fill="#000000" width="800px" height="800px" viewBox="0 0 24 24" id="file-video-player-2" data-name="Flat Line" xmlns="http://www.w3.org/2000/svg" class="icon flat-line"><path id="secondary" d="M15,9a6,6,0,1,0,6,6A6,6,0,0,0,15,9Zm-1,7.5v-3L17,15Z" style="fill: rgb(44, 169, 188); stroke-width: 2;"></path><path id="primary" d="M21,15a6,6,0,1,0-6,6A6,6,0,0,0,21,15Zm-4,0-3-1.5v3Z" style="fill: none; stroke: rgb(0, 0, 0); stroke-linecap: round; stroke-linejoin: round; stroke-width: 2;"></path><path id="primary-2" data-name="primary" d="M7,21H4a1,1,0,0,1-1-1V4A1,1,0,0,1,4,3h9l2,2" style="fill: none; stroke: rgb(0, 0, 0); stroke-linecap: round; stroke-linejoin: round; stroke-width: 2;"></path></svg>