<!DOCTYPE svg PUBLIC "-//W3C//DTD SVG 1.1//EN" "http://www.w3.org/Graphics/SVG/1.1/DTD/svg11.dtd">
<!-- Uploaded to: SVG Repo, www.svgrepo.com, Transformed by: SVG Repo Mixer Tools -->
<svg fill="#000000" width="800px" height="800px" viewBox="0 0 24 24" id="file-video-player-2" data-name="Flat Line" xmlns="http://www.w3.org/2000/svg" class="icon flat-line">
<g id="SVGRepo_bgCarrier" stroke-width="0"/>
<g id="SVGRepo_tracerCarrier" stroke-linecap="round" stroke-linejoin="round"/>
<g id="SVGRepo_iconCarrier">
<path id="secondary" d="M15,9a6,6,0,1,0,6,6A6,6,0,0,0,15,9Zm-1,7.5v-3L17,15Z" style="fill: #2ca9bc; stroke-width: 2;"/>
<path id="primary" d="M21,15a6,6,0,1,0-6,6A6,6,0,0,0,21,15Zm-4,0-3-1.5v3Z" style="fill: none; stroke: #ffffff; stroke-linecap: round; stroke-linejoin: round; stroke-width: 2;"/>
<path id="primary-2" data-name="primary" d="M7,21H4a1,1,0,0,1-1-1V4A1,1,0,0,1,4,3h9l2,2" style="fill: none; stroke: #ffffff; stroke-linecap: round; stroke-linejoin: round; stroke-width: 2;"/>
</g>
</svg>